# AST/ASF file generated using VICON BodyLanguage
# -----------------------------------------------
:version 1.10
:name VICON
:units
  mass 1.0
  length 0.45
  angle deg
:documentation
   .ast/.asf automatically generated from VICON data using
   VICON BodyBuilder and BodyLanguage model FoxedUp or BRILLIANT.MOD
:root
   order TX TY TZ RX RY RZ
   axis XYZ
   position 0 0 0  
   orientation 0 0 0 
:bonedata
  begin
     id 1 
     name lhipjoint
     direction 0.558404 -0.748506 0.357664 
     length 2.4234 
     axis 0 0 0  XYZ
  end
  begin
     id 2 
     name lfemur
     direction 0.34202 -0.939693 0  
     length 7.14567  
     axis 0 0 20  XYZ
    dof rx ry rz
    limits (-160.0 20.0)
           (-70.0 70.0)
           (-60.0 70.0)
  end
  begin
     id 3 
     name ltibia
     direction 0.34202 -0.939693 0   
     length 8.13956   
     axis 0 0 20   XYZ
    dof rx
    limits (-10.0 170.0)
  end
  begin
     id 4 
     name lfoot
     direction 0.0791314 -0.217412 0.972867   
     length 2.00134   
     axis -90 7.62852e-016 20   XYZ
    dof rx rz
    limits (-45.0 90.0)
           (-70.0 20.0)
  end
  begin
     id 5 
     name ltoes
     direction 1.53547e-011 -4.21922e-011 1   
     length 1.00735   
     axis -90 7.62852e-016 20   XYZ
    dof rx
    limits (-90.0 20.0)
  end
  begin
     id 6 
     name rhipjoint
     direction -0.496392 -0.78327 0.374276   
     length 2.31584  
     axis 0 0 0  XYZ 
  end
  begin
     id 7 
     name rfemur
     direction -0.34202 -0.939693 0   
     length 7.47417   
     axis 0 0 -20   XYZ
    dof rx ry rz
    limits (-160.0 20.0)
           (-70.0 70.0)
           (-70.0 60.0)
  end
  begin
     id 8 
     name rtibia
     direction -0.34202 -0.939693 0   
     length 7.69071   
     axis 0 0 -20   XYZ
    dof rx
    limits (-10.0 170.0)
 end
 begin
     id 9 
     name rfoot
     direction -0.103069 -0.28318 0.953512   
     length 2.16135  
     axis -90 -7.62852e-016 -20   XYZ
    dof rx rz
    limits (-45.0 90.0)
           (-20.0 70.0)
  end
  begin
     id 10 
     name rtoes
     direction -1.53581e-011 -4.21904e-011 1   
     length 1.07867   
     axis -90 -7.62852e-016 -20   XYZ
    dof rx
    limits (-90.0 20.0)
  end
  begin
     id 11 
     name lowerback
     direction -0.0258961 0.994776 -0.0987407   
     length 2.19412   
     axis 0 0 0   XYZ
    dof rx ry rz
    limits (-20.0 45.0)
           (-30.0 30.0)
           (-30.0 30.0)
  end
  begin
     id 12 
     name upperback
     direction 0.0402454 0.999185 0.00320666   
     length 2.18445   
     axis 0 0 0   XYZ
    dof rx ry rz
    limits (-20.0 45.0)
           (-30.0 30.0)
           (-30.0 30.0)
  end
  begin
     id 13 
     name thorax
     direction 0.0519376 0.997415 0.0496558   
     length 2.21487   
     axis 0 0 0   XYZ
    dof rx ry rz
    limits (-20.0 45.0)
           (-30.0 30.0)
           (-30.0 30.0)
  end
  begin
     id 14 
     name lowerneck
     direction -0.0921276 0.983211 0.157506   
     length 1.61201   
     axis 0 0 0   XYZ
    dof rx ry rz
    limits (-20.0 45.0)
           (-30.0 30.0)
           (-30.0 30.0)
  end
  begin
     id 15 
     name upperneck
     direction 0.0820814 0.98162 -0.172292   
     length 1.65275   
     axis 0 0 0   XYZ
    dof rx ry rz
    limits (-20.0 45.0)
           (-30.0 30.0)
           (-30.0 30.0)
  end
  begin
     id 16
     name head
     direction 0.0336554 0.996413 -0.0776455  
     length 1.66415  
     axis 0 0 0   XYZ
    dof rx ry rz
    limits (-20.0 45.0)
           (-30.0 30.0)
           (-30.0 30.0)
  end
  begin
     id 17 
     name lclavicle
     direction 0.94696 0.284418 -0.149576  
     length 3.41447  
     axis 0 0 0   XYZ
    dof ry rz
    limits (-20.0 10.0)
           (0.0 20.0)
  end
  begin
     id 18 
     name lhumerus
     direction 1 -0.000130264 -9.81312e-005   
     length 5.19964   
     axis 180 -30 -90   XYZ
    dof rx ry rz
    limits (-60.0 90.0)
           (-90.0 90.0)
           (-90.0 90.0)
  end
  begin
     id 19
     name lradius
     direction 1 -4.48961e-011 1.43854e-026   
     length 3.32189   
     axis 180 -30 -90   XYZ
    dof rx
    limits (-10.0 170.0)
  end
  begin
     id 20
     name lwrist
     direction 1 -4.48958e-011 3.1502e-026   
     length 1.66095   
     axis -1.97692e-014 90 90   XYZ
    dof ry
    limits (-180.0 0.0)
 end
  begin
     id 21 
     name lhand
     direction 1 -4.48927e-011 6.3004e-026   
     length 0.645616   
     axis -4.02019e-014 90 90   XYZ
    dof rx rz
    limits (-90.0 90.0)
           (-45.0 45.0)
  end
  begin
     id 22 
     name lfingers
     direction 1 -4.4904e-011 1.26008e-025   
     length 0.520512   
     axis -8.04039e-014 90 90   XYZ
    dof rx
    limits (0.0 90.0)
  end
  begin
     id 23
     name lthumb
     direction 0.707107 -6.34947e-011 0.707107   
     length 0.747354   
     axis -90 45 2.85299e-015   XYZ
    dof rx rz
    limits (-45.0 45.0)
           (-45.0 45.0)
  end
  begin
     id 24 
     name rclavicle
     direction -0.909391 0.383475 -0.161107   
     length 3.25176  
     axis 0 0 0   XYZ 
    dof ry rz
    limits (-10.0 20.0)
           (-20.0 0.0)
  end
  begin
     id 25 
     name rhumerus
     direction -1 -4.48965e-011 -1.81384e-027  
     length 5.6595   
     axis 180 30 90   XYZ
    dof rx ry rz
    limits (-90.0 60.0)
           (-90.0 90.0)
           (-90.0 90.0)
  end
  begin
     id 26 
     name rradius
     direction -1 -4.48996e-011 -8.09397e-027   
     length 3.37604   
     axis 180 30 90   XYZ
    dof rx
    limits (-10.0 170.0)
  end
  begin
     id 27 
     name rwrist
     direction -1 -4.48927e-011 -1.56669e-026   
     length 1.68802   
     axis 1.21142e-014 -90 -90   XYZ
    dof ry
    limits (-180.0 0.0)
  end
  begin
     id 28
     name rhand
     direction -1 -4.48912e-011 -3.13339e-026   
     length 0.824702   
     axis 1.99937e-014 -90 -90   XYZ
    dof rx rz
    limits (-90.0 90.0)
           (-45.0 45.0)
  end
  begin
     id 29
     name rfingers
     direction -1 -4.49011e-011 -6.26677e-026   
     length 0.664896   
     axis 3.99874e-014 -90 -90   XYZ
    dof rx
    limits (0.0 90.0)
  end
  begin
     id 30
     name rthumb
     direction -0.707107 -6.34931e-011 0.707107   
     length 0.954662   
     axis -90 -45 -2.85299e-015   XYZ
    dof rx rz
    limits (-45.0 45.0)
           (-45.0 45.0)
  end
:hierarchy
  begin
    root lhipjoint rhipjoint lowerback
    lhipjoint lfemur
    lfemur ltibia
    ltibia lfoot
    lfoot ltoes
    rhipjoint rfemur
    rfemur rtibia
    rtibia rfoot
    rfoot rtoes
    lowerback upperback
    upperback thorax
    thorax lowerneck lclavicle rclavicle
    lowerneck upperneck
    upperneck head
    lclavicle lhumerus
    lhumerus lradius
    lradius lwrist
    lwrist lhand lthumb
    lhand lfingers
    rclavicle rhumerus
    rhumerus rradius
    rradius rwrist
    rwrist rhand rthumb
    rhand rfingers
  end

#!OML:ASF F:\VICON\USERDATA\INSTALL\rory3\rory3.ASF
:FULLY-SPECIFIED
:DEGREES
526
root 7.52255 17.0592 -11.4496 19.5036 -38.3217 -9.96971
lowerback 9.14916 -2.43035 -3.98255
upperback 1.61137 -3.49655 4.35075
thorax -2.93033 -1.71703 7.21094
lowerneck -9.4226 -1.93785 -12.2113
upperneck 25.3348 -5.27959 17.5786
head 10.3283 -1.93892 7.93566
rclavicle -2.32578e-014 -2.94201e-014
rhumerus -31.4017 -14.116 -71.0663
rradius 46.6134
rwrist -18.4785
rhand -12.0163 17.3874
rfingers 7.12502
rthumb 14.0413 -12.1183
lclavicle -2.32578e-014 -2.94201e-014
lhumerus -5.13903 29.059 64.8761
lradius 27.2795
lwrist -9.8645
lhand -5.32225 31.9836
lfingers 7.12502
lthumb 20.4838 60.9231
rfemur -30.3168 1.50426 20.5534
rtibia 61.3249
rfoot -18.9592 -9.58257
rtoes -9.93968
lfemur -19.1952 5.94433 -13.3061
ltibia 54.0318
lfoot -26.8336 11.3696
ltoes -22.6493
527
root 7.45176 17.0328 -11.3814 19.6353 -37.7547 -10.2184
lowerback 9.52789 -2.50396 -3.56938
upperback 1.47592 -3.55463 4.47205
thorax -3.29145 -1.7338 7.14108
lowerneck -9.09624 -2.00586 -12.6165
upperneck 25.1167 -5.37326 17.869
head 10.2178 -2.00801 8.10053
rclavicle 5.78463e-014 -9.93923e-015
rhumerus -31.1558 -13.3328 -70.9627
rradius 47.3182
rwrist -18.3981
rhand -12.3806 17.2256
rfingers 7.12502
rthumb 13.6902 -12.3041
lclavicle 5.78463e-014 -9.93923e-015
lhumerus -5.63824 29.3476 63.6383
lradius 27.3238
lwrist -9.5715
lhand -5.92852 31.5666
lfingers 7.12502
lthumb 19.9011 60.5677
rfemur -30.1119 1.23995 20.8966
rtibia 61.7026
rfoot -18.9037 -9.35454
rtoes -10.3981
lfemur -20.8057 6.44162 -12.6348
ltibia 57.1297
lfoot -24.6193 10.2055
ltoes -24.1448
528
root 7.37446 17.0084 -11.3109 19.3457 -36.1537 -10.1868
lowerback 10.0821 -2.92993 -2.998
upperback 1.45946 -4.06323 4.62475
thorax -3.57012 -1.98442 7.07385
lowerneck -9.109 -2.12414 -12.9002
upperneck 25.0515 -5.53307 18.0901
head 10.2416 -2.08733 8.22183
rclavicle -7.7526e-015 2.38542e-014
rhumerus -30.3947 -12.8187 -70.9862
rradius 47.4861
rwrist -18.2461
rhand -12.7564 17.3278
rfingers 7.12502
rthumb 13.328 -12.226
lclavicle -7.7526e-015 2.38542e-014
lhumerus -5.70467 29.6786 62.3138
lradius 27.098
lwrist -10.0052
lhand -5.76599 31.3086
lfingers 7.12502
lthumb 20.0573 60.2934
rfemur -29.4653 0.13115 21.4424
rtibia 62.0833
rfoot -18.9663 -9.46069
rtoes -11.2459
lfemur -22.485 6.0994 -11.7435
ltibia 60.3212
lfoot -22.2086 8.49761
ltoes -21.5676
529
root 7.30483 16.9771 -11.2332 19.4283 -35.5753 -10.4332
lowerback 10.1897 -2.95483 -2.55848
upperback 1.57857 -4.04882 4.75447
thorax -3.52837 -1.98727 6.96184
lowerneck -9.36938 -2.33245 -13.1236
upperneck 24.9884 -5.75964 18.1496
head 10.3261 -2.19284 8.26173
rclavicle -7.55382e-015 2.38542e-015
rhumerus -29.3703 -12.6455 -70.8859
rradius 47.6773
rwrist -18.1346
rhand -13.033 17.417
rfingers 7.12502
rthumb 13.0613 -12.154
lclavicle -7.55382e-015 2.38542e-015
lhumerus -5.49041 30.4938 61.2564
lradius 26.934
lwrist -10.8229
lhand -5.13006 31.0236
lfingers 7.12502
lthumb 20.6684 59.9431
rfemur -29.1587 -0.223899 21.8191
rtibia 62.4456
rfoot -18.7495 -9.46525
rtoes -11.8916
lfemur -24.3099 6.57723 -11.0922
ltibia 63.4901
lfoot -19.5404 6.98631
ltoes -15.7441
530
root 7.22698 16.9419 -11.1887 20.0585 -35.7199 -10.5888
lowerback 9.90966 -2.64711 -2.84864
upperback 1.48317 -3.66146 4.93227
thorax -3.49524 -1.78995 7.25956
lowerneck -9.39561 -2.56768 -13.4775
upperneck 24.7695 -6.01745 18.2771
head 10.3192 -2.32866 8.33703
rclavicle 4.11484e-014 5.96354e-015
rhumerus -28.538 -12.2727 -70.6006
rradius 48.2433
rwrist -18.435
rhand -13.2641 17.3905
rfingers 7.12502
rthumb 12.8386 -12.1947
lclavicle 4.11484e-014 5.96354e-015
lhumerus -5.35672 31.377 60.3237
lradius 26.8119
lwrist -11.4616
lhand -4.48373 30.8425
lfingers 7.12502
lthumb 21.2894 59.6932
rfemur -29.7034 0.0685864 21.9307
rtibia 62.914
rfoot -18.5733 -9.20061
rtoes -10.9321
lfemur -26.8601 7.93717 -10.7861
ltibia 66.7027
lfoot -16.9313 5.49633
ltoes -9.84943
531
root 7.15688 16.9083 -11.0942 19.5106 -34.8682 -10.5157
lowerback 10.3792 -2.7279 -2.38003
upperback 1.65163 -3.72385 4.92837
thorax -3.60077 -1.82711 7.01919
lowerneck -9.31402 -2.7407 -13.5846
upperneck 24.4646 -6.24571 18.4369
head 10.2478 -2.43082 8.37425
rclavicle 3.57812e-014 -6.95746e-014
rhumerus -27.7097 -11.8539 -70.437
rradius 48.7966
rwrist -18.9573
rhand -13.3461 17.4069
rfingers 7.12502
rthumb 12.7595 -12.1832
lclavicle 3.57812e-014 -6.95746e-014
lhumerus -5.1174 31.4636 59.1198
lradius 26.4614
lwrist -11.3764
lhand -4.16468 31.3138
lfingers 7.12502
lthumb 21.5958 60.1296
rfemur -28.7363 -0.612745 22.0361
rtibia 63.2161
rfoot -18.8865 -8.73185
rtoes -9.80568
lfemur -28.1937 8.04374 -10.4588
ltibia 69.6777
lfoot -15.3348 4.7354
ltoes -9.30757
532
root 7.09027 16.8595 -11.0153 19.5449 -34.1874 -10.8284
lowerback 10.6175 -2.61001 -1.66574
upperback 1.72026 -3.48962 4.84743
thorax -3.74158 -1.71548 6.50805
lowerneck -9.38456 -3.03459 -13.1483
upperneck 24.1806 -6.71771 18.4895
head 10.2443 -2.59913 8.23794
rclavicle -1.21656e-013 7.59357e-014
rhumerus -27.0338 -11.9051 -70.2955
rradius 49.3617
rwrist -19.1652
rhand -13.4401 17.3907
rfingers 7.12502
rthumb 12.6689 -12.2051
lclavicle -1.21656e-013 7.59357e-014
lhumerus -4.41126 30.9815 57.9423
lradius 25.9618
lwrist -11.3197
lhand -4.18447 31.3608
lfingers 7.12502
lthumb 21.5768 60.1788
rfemur -28.3108 -0.904609 22.5014
rtibia 63.5373
rfoot -19.0224 -8.72322
rtoes -10.313
lfemur -29.9921 8.66631 -9.88431
ltibia 72.6555
lfoot -14.9179 4.24617
ltoes -12.2119
533
root 7.02114 16.8185 -10.915 19.6759 -33.9507 -11.3331
lowerback 10.7655 -2.31707 -0.98622
upperback 1.85565 -3.02662 4.83613
thorax -3.77482 -1.49491 6.0519
lowerneck -9.58973 -3.39659 -12.9544
upperneck 23.9297 -7.24268 18.5987
head 10.3004 -2.80242 8.16587
rclavicle -1.54654e-013 4.65156e-014
rhumerus -26.3233 -11.6514 -69.9059
rradius 50.1409
rwrist -19.4696
rhand -13.5513 17.3534
rfingers 7.12502
rthumb 12.5618 -12.249
lclavicle -1.54654e-013 4.65156e-014
lhumerus -3.63398 31.4941 57.0911
lradius 25.5197
lwrist -12.5599
lhand -4.10742 30.3613
lfingers 7.12502
lthumb 21.6508 59.1708
rfemur -27.7275 -0.902753 22.9701
rtibia 63.6552
rfoot -19.0546 -8.86163
rtoes -11.8026
lfemur -31.7344 9.69954 -9.30472
ltibia 75.4917
lfoot -15.3044 3.27659
ltoes -9.87387
534
root 6.94932 16.7875 -10.8256 19.9054 -33.7844 -11.7798
lowerback 10.9065 -2.10136 -0.639983
upperback 1.93305 -2.69761 4.95646
thorax -3.81825 -1.33632 5.9447
lowerneck -9.76621 -3.65965 -13.1581
upperneck 23.7183 -7.57156 18.7826
head 10.3435 -2.94604 8.2248
rclavicle -5.84427e-014 1.98785e-015
rhumerus -25.2247 -11.2045 -69.4595
rradius 50.7649
rwrist -19.5275
rhand -13.3192 17.4286
rfingers 7.12502
rthumb 12.7855 -12.1599
lclavicle -5.84427e-014 1.98785e-015
lhumerus -3.15843 32.6501 56.1344
lradius 25.1411
lwrist -14.4136
lhand -4.11758 29.4931
lfingers 7.12502
lthumb 21.641 58.3037
rfemur -27.2736 -0.979756 23.4298
rtibia 63.7074
rfoot -19.0093 -9.05002
rtoes -13.5453
lfemur -33.7972 10.8854 -8.79025
ltibia 78.2361
lfoot -15.3559 1.992
ltoes -8.31621
535
root 6.87944 16.7571 -10.7291 20.1511 -33.7669 -12.3234
lowerback 11.0509 -1.85142 -0.166477
upperback 1.94719 -2.30545 5.05151
thorax -3.93983 -1.1454 5.72999
lowerneck -9.83679 -3.91281 -13.5264
upperneck 23.6419 -7.89762 19.0062
head 10.4233 -3.10491 8.34013
rclavicle -1.00883e-013 4.29375e-014
rhumerus -24.1331 -10.8761 -68.8995
rradius 51.2995
rwrist -19.2184
rhand -12.9744 17.4943
rfingers 7.12502
rthumb 13.1179 -12.0731
lclavicle -1.00883e-013 4.29375e-014
lhumerus -2.91894 33.1869 54.9126
lradius 24.7381
lwrist -15.8293
lhand -3.91493 29.411
lfingers 7.12502
lthumb 21.8356 58.199
rfemur -26.7467 -0.933479 23.8941
rtibia 63.6808
rfoot -18.9539 -9.25699
rtoes -15.3399
lfemur -35.791 12.2972 -8.3116
ltibia 80.7757
lfoot -15.2157 1.13482
ltoes -11.7718
536
root 6.81751 16.7182 -10.6269 20.2304 -33.3263 -12.7152
lowerback 11.333 -1.71917 0.466265
upperback 1.90732 -2.04083 5.15969
thorax -4.18245 -1.01782 5.46284
lowerneck -9.79814 -4.18683 -13.7784
upperneck 23.5246 -8.26116 19.1451
head 10.4673 -3.28331 8.39058
rclavicle -1.89839e-014 9.54166e-015
rhumerus -23.0739 -10.5939 -68.2238
rradius 51.9507
rwrist -19.0772
rhand -12.8844 17.446
rfingers 7.12502
rthumb 13.2046 -12.1158
lclavicle -1.89839e-014 9.54166e-015
lhumerus -2.84309 33.4198 53.6598
lradius 24.412
lwrist -17.0075
lhand -3.75662 28.8341
lfingers 7.12502
lthumb 21.9877 57.6044
rfemur -26.0898 -1.10219 24.3586
rtibia 63.6118
rfoot -19.0143 -9.54475
rtoes -16.3048
lfemur -37.9582 13.3872 -7.89816
ltibia 83.1279
lfoot -15.2018 0.371856
ltoes -13.5028
537
root 6.75766 16.681 -10.538 20.1493 -32.6912 -12.6734
lowerback 11.7532 -1.68737 0.684329
upperback 1.8341 -1.9507 5.18889
thorax -4.50657 -0.970064 5.37993
lowerneck -9.98554 -4.43144 -13.6441
upperneck 23.4518 -8.60214 19.1246
head 10.545 -3.41896 8.30647
rclavicle -2.09718e-014 9.54166e-015
rhumerus -21.8075 -10.3587 -67.7613
rradius 52.737
rwrist -19.0183
rhand -12.8468 17.2935
rfingers 7.12502
rthumb 13.2409 -12.2659
lclavicle -2.09718e-014 9.54166e-015
lhumerus -2.8985 33.6938 52.2457
lradius 24.582
lwrist -17.1046
lhand -3.66745 28.6282
lfingers 7.12502
lthumb 22.0733 57.3884
rfemur -25.5184 -1.41059 24.5588
rtibia 63.5091
rfoot -19.1961 -9.69519
rtoes -15.8909
lfemur -40.4546 14.2049 -7.90228
ltibia 85.2134
lfoot -15.1993 -0.501072
ltoes -12.203
538
root 6.6906 16.6614 -10.4321 20.183 -32.5301 -12.6229
lowerback 11.8274 -1.5344 0.848378
upperback 1.80091 -1.7274 5.02815
thorax -4.6118 -0.859847 5.08482
lowerneck -10.1653 -4.6217 -13.5134
upperneck 23.3432 -8.91695 19.312
head 10.6136 -3.52672 8.30807
rclavicle 7.11649e-014 -2.78299e-015
rhumerus -20.5552 -9.98085 -67.5134
rradius 53.783
rwrist -19.0012
rhand -13.0845 17.0745
rfingers 7.12502
rthumb 13.0118 -12.4997
lclavicle 7.11649e-014 -2.78299e-015
lhumerus -3.04561 33.5636 50.5163
lradius 25.2691
lwrist -16.1582
lhand -2.6571 30.3251
lfingers 7.12502
lthumb 23.043 58.9675
rfemur -24.8983 -1.35133 24.5343
rtibia 63.2517
rfoot -19.501 -9.6148
rtoes -14.6673
lfemur -42.8449 15.3006 -8.22304
ltibia 86.8936
lfoot -15.2733 -1.19779
ltoes -10.5851
539
root 6.62064 16.6445 -10.3099 20.2397 -32.5539 -12.7204
lowerback 11.9205 -1.3412 0.985971
upperback 1.72259 -1.44762 4.96474
thorax -4.77349 -0.720688 4.90186
lowerneck -10.201 -4.77701 -13.558
upperneck 23.2525 -9.14867 19.4465
head 10.6473 -3.62352 8.33393
rclavicle 2.39536e-014 -6.44062e-014
rhumerus -19.3052 -9.25609 -67.118
rradius 54.9677
rwrist -19.2219
rhand -13.678 16.8537
rfingers 7.12502
rthumb 12.4396 -12.7561
lclavicle 2.39536e-014 -6.44062e-014
lhumerus -3.61295 33.1954 48.5405
lradius 25.9595
lwrist -15.6704
lhand -1.55928 31.3382
lfingers 7.12502
lthumb 24.096 59.8452
rfemur -24.0696 -1.13939 24.5679
rtibia 62.8087
rfoot -19.7267 -9.79252
rtoes -14.814
lfemur -45.0569 16.5651 -8.56149
ltibia 88.2464
lfoot -15.5789 -1.48195
ltoes -11.2926
540
root 6.55191 16.6289 -10.184 20.3812 -32.4807 -12.8903
lowerback 12.1698 -1.19256 0.98917
upperback 1.55385 -1.22453 5.10351
thorax -5.10402 -0.60406 5.02901
lowerneck -10.3118 -4.96754 -13.7969
upperneck 23.3064 -9.38264 19.4884
head 10.7548 -3.74098 8.36769
rclavicle 2.31584e-014 -4.65156e-014
rhumerus -18.0314 -8.17836 -66.4783
rradius 56.3728
rwrist -19.6002
rhand -14.1197 16.7407
rfingers 7.12502
rthumb 12.0137 -12.8945
lclavicle 2.31584e-014 -4.65156e-014
lhumerus -4.17068 33.3685 46.6264
lradius 26.1727
lwrist -16.027
lhand -0.846098 31.1742
lfingers 7.12502
lthumb 24.7797 59.5889
rfemur -23.2281 -1.09202 24.7518
rtibia 62.1354
rfoot -19.7133 -10.2894
rtoes -16.2406
lfemur -47.3781 17.6606 -8.89798
ltibia 89.3108
lfoot -15.8375 -1.59157
ltoes -12.3091
